<svg xmlns="http://www.w3.org/2000/svg"><defs><symbol id="wood" viewBox="0 0 80 80"><g fill="none" stroke="currentColor" stroke-width="5" stroke-linecap="round" stroke-linejoin="round"><path d="M18 45C28 17 40 14 50 45M32 45C41 20 52 18 60 45"/></g></symbol>
<symbol id="brick" viewBox="0 0 80 80"><g fill="none" stroke="currentColor" stroke-width="5" stroke-linecap="round" stroke-linejoin="round"><path d="M18 48h44V24H18zM18 36h44M32 24v24M48 24v24"/></g></symbol>
<symbol id="grain" viewBox="0 0 80 80"><g fill="none" stroke="currentColor" stroke-width="5" stroke-linecap="round" stroke-linejoin="round"><path d="M40 15v50M40 24l-14 10M40 34l15 10M40 44L25 55"/></g></symbol>
<symbol id="wool" viewBox="0 0 80 80"><g fill="none" stroke="currentColor" stroke-width="5" stroke-linecap="round" stroke-linejoin="round"><circle cx="40" cy="40" r="22"/><path d="M40 18v44M18 40h44"/></g></symbol>
<symbol id="ore" viewBox="0 0 80 80"><g fill="none" stroke="currentColor" stroke-width="5" stroke-linecap="round" stroke-linejoin="round"><path d="M15 55L31 24l12 18 10-14 14 27z"/></g></symbol>
<symbol id="paper" viewBox="0 0 80 80"><g fill="none" stroke="currentColor" stroke-width="5" stroke-linecap="round" stroke-linejoin="round"><path d="M19 55V32l21-15 21 15v23zM31 55V39h18v16"/></g></symbol>
<symbol id="coin" viewBox="0 0 80 80"><g fill="none" stroke="currentColor" stroke-width="5" stroke-linecap="round" stroke-linejoin="round"><path d="M18 45C28 17 40 14 50 45M32 45C41 20 52 18 60 45"/></g></symbol>
<symbol id="cloth" viewBox="0 0 80 80"><g fill="none" stroke="currentColor" stroke-width="5" stroke-linecap="round" stroke-linejoin="round"><path d="M18 48h44V24H18zM18 36h44M32 24v24M48 24v24"/></g></symbol>
<symbol id="trade" viewBox="0 0 80 80"><g fill="none" stroke="currentColor" stroke-width="5" stroke-linecap="round" stroke-linejoin="round"><path d="M40 15v50M40 24l-14 10M40 34l15 10M40 44L25 55"/></g></symbol>
<symbol id="politics" viewBox="0 0 80 80"><g fill="none" stroke="currentColor" stroke-width="5" stroke-linecap="round" stroke-linejoin="round"><circle cx="40" cy="40" r="22"/><path d="M40 18v44M18 40h44"/></g></symbol>
<symbol id="science" viewBox="0 0 80 80"><g fill="none" stroke="currentColor" stroke-width="5" stroke-linecap="round" stroke-linejoin="round"><path d="M15 55L31 24l12 18 10-14 14 27z"/></g></symbol>
<symbol id="road" viewBox="0 0 80 80"><g fill="none" stroke="currentColor" stroke-width="5" stroke-linecap="round" stroke-linejoin="round"><path d="M19 55V32l21-15 21 15v23zM31 55V39h18v16"/></g></symbol>
<symbol id="settlement" viewBox="0 0 80 80"><g fill="none" stroke="currentColor" stroke-width="5" stroke-linecap="round" stroke-linejoin="round"><path d="M18 45C28 17 40 14 50 45M32 45C41 20 52 18 60 45"/></g></symbol>
<symbol id="city" viewBox="0 0 80 80"><g fill="none" stroke="currentColor" stroke-width="5" stroke-linecap="round" stroke-linejoin="round"><path d="M18 48h44V24H18zM18 36h44M32 24v24M48 24v24"/></g></symbol>
<symbol id="knight" viewBox="0 0 80 80"><g fill="none" stroke="currentColor" stroke-width="5" stroke-linecap="round" stroke-linejoin="round"><path d="M40 15v50M40 24l-14 10M40 34l15 10M40 44L25 55"/></g></symbol>
<symbol id="activate-knight" viewBox="0 0 80 80"><g fill="none" stroke="currentColor" stroke-width="5" stroke-linecap="round" stroke-linejoin="round"><circle cx="40" cy="40" r="22"/><path d="M40 18v44M18 40h44"/><circle cx="61" cy="19" r="8" fill="#c9a24a" stroke="none"/></g></symbol>
<symbol id="deactivate-knight" viewBox="0 0 80 80"><g fill="none" stroke="currentColor" stroke-width="5" stroke-linecap="round" stroke-linejoin="round"><path d="M15 55L31 24l12 18 10-14 14 27z"/><circle cx="61" cy="19" r="8" fill="#c9a24a" stroke="none"/></g></symbol>
<symbol id="upgrade-knight" viewBox="0 0 80 80"><g fill="none" stroke="currentColor" stroke-width="5" stroke-linecap="round" stroke-linejoin="round"><path d="M19 55V32l21-15 21 15v23zM31 55V39h18v16"/><path d="M58 25V10M50 18h16"/></g></symbol>
<symbol id="bank-trade" viewBox="0 0 80 80"><g fill="none" stroke="currentColor" stroke-width="5" stroke-linecap="round" stroke-linejoin="round"><path d="M18 45C28 17 40 14 50 45M32 45C41 20 52 18 60 45"/></g></symbol>
<symbol id="harbor" viewBox="0 0 80 80"><g fill="none" stroke="currentColor" stroke-width="5" stroke-linecap="round" stroke-linejoin="round"><path d="M18 48h44V24H18zM18 36h44M32 24v24M48 24v24"/></g></symbol>
<symbol id="bandit" viewBox="0 0 80 80"><g fill="none" stroke="currentColor" stroke-width="5" stroke-linecap="round" stroke-linejoin="round"><path d="M40 15v50M40 24l-14 10M40 34l15 10M40 44L25 55"/></g></symbol>
<symbol id="barbarian" viewBox="0 0 80 80"><g fill="none" stroke="currentColor" stroke-width="5" stroke-linecap="round" stroke-linejoin="round"><circle cx="40" cy="40" r="22"/><path d="M40 18v44M18 40h44"/></g></symbol>
<symbol id="merchant" viewBox="0 0 80 80"><g fill="none" stroke="currentColor" stroke-width="5" stroke-linecap="round" stroke-linejoin="round"><path d="M15 55L31 24l12 18 10-14 14 27z"/></g></symbol>
<symbol id="city-wall" viewBox="0 0 80 80"><g fill="none" stroke="currentColor" stroke-width="5" stroke-linecap="round" stroke-linejoin="round"><path d="M19 55V32l21-15 21 15v23zM31 55V39h18v16"/></g></symbol>
<symbol id="metropolis" viewBox="0 0 80 80"><g fill="none" stroke="currentColor" stroke-width="5" stroke-linecap="round" stroke-linejoin="round"><path d="M18 45C28 17 40 14 50 45M32 45C41 20 52 18 60 45"/></g></symbol>
<symbol id="harbor-any" viewBox="0 0 80 80"><g fill="none" stroke="currentColor" stroke-width="5" stroke-linecap="round" stroke-linejoin="round"><path d="M18 48h44V24H18zM18 36h44M32 24v24M48 24v24"/></g></symbol>
<symbol id="harbor-wood" viewBox="0 0 80 80"><g fill="none" stroke="currentColor" stroke-width="5" stroke-linecap="round" stroke-linejoin="round"><path d="M40 15v50M40 24l-14 10M40 34l15 10M40 44L25 55"/></g></symbol>
<symbol id="harbor-brick" viewBox="0 0 80 80"><g fill="none" stroke="currentColor" stroke-width="5" stroke-linecap="round" stroke-linejoin="round"><circle cx="40" cy="40" r="22"/><path d="M40 18v44M18 40h44"/></g></symbol>
<symbol id="harbor-grain" viewBox="0 0 80 80"><g fill="none" stroke="currentColor" stroke-width="5" stroke-linecap="round" stroke-linejoin="round"><path d="M15 55L31 24l12 18 10-14 14 27z"/></g></symbol>
<symbol id="harbor-wool" viewBox="0 0 80 80"><g fill="none" stroke="currentColor" stroke-width="5" stroke-linecap="round" stroke-linejoin="round"><path d="M19 55V32l21-15 21 15v23zM31 55V39h18v16"/></g></symbol>
<symbol id="harbor-ore" viewBox="0 0 80 80"><g fill="none" stroke="currentColor" stroke-width="5" stroke-linecap="round" stroke-linejoin="round"><path d="M18 45C28 17 40 14 50 45M32 45C41 20 52 18 60 45"/></g></symbol>
<symbol id="dev-knight" viewBox="0 0 80 80"><g fill="none" stroke="currentColor" stroke-width="5" stroke-linecap="round" stroke-linejoin="round"><path d="M18 48h44V24H18zM18 36h44M32 24v24M48 24v24"/></g></symbol>
<symbol id="dev-victory" viewBox="0 0 80 80"><g fill="none" stroke="currentColor" stroke-width="5" stroke-linecap="round" stroke-linejoin="round"><path d="M40 15v50M40 24l-14 10M40 34l15 10M40 44L25 55"/></g></symbol>
<symbol id="dev-road-building" viewBox="0 0 80 80"><g fill="none" stroke="currentColor" stroke-width="5" stroke-linecap="round" stroke-linejoin="round"><circle cx="40" cy="40" r="22"/><path d="M40 18v44M18 40h44"/></g></symbol>
<symbol id="dev-year-of-plenty" viewBox="0 0 80 80"><g fill="none" stroke="currentColor" stroke-width="5" stroke-linecap="round" stroke-linejoin="round"><path d="M15 55L31 24l12 18 10-14 14 27z"/></g></symbol>
<symbol id="dev-monopoly" viewBox="0 0 80 80"><g fill="none" stroke="currentColor" stroke-width="5" stroke-linecap="round" stroke-linejoin="round"><path d="M19 55V32l21-15 21 15v23zM31 55V39h18v16"/></g></symbol>
<symbol id="progress-harvest" viewBox="0 0 80 80"><g fill="none" stroke="currentColor" stroke-width="5" stroke-linecap="round" stroke-linejoin="round"><path d="M18 45C28 17 40 14 50 45M32 45C41 20 52 18 60 45"/></g></symbol>
<symbol id="progress-merchant" viewBox="0 0 80 80"><g fill="none" stroke="currentColor" stroke-width="5" stroke-linecap="round" stroke-linejoin="round"><path d="M18 48h44V24H18zM18 36h44M32 24v24M48 24v24"/></g></symbol>
<symbol id="progress-caravan" viewBox="0 0 80 80"><g fill="none" stroke="currentColor" stroke-width="5" stroke-linecap="round" stroke-linejoin="round"><path d="M40 15v50M40 24l-14 10M40 34l15 10M40 44L25 55"/></g></symbol>
<symbol id="progress-market-day" viewBox="0 0 80 80"><g fill="none" stroke="currentColor" stroke-width="5" stroke-linecap="round" stroke-linejoin="round"><circle cx="40" cy="40" r="22"/><path d="M40 18v44M18 40h44"/></g></symbol>
<symbol id="progress-diplomat" viewBox="0 0 80 80"><g fill="none" stroke="currentColor" stroke-width="5" stroke-linecap="round" stroke-linejoin="round"><path d="M15 55L31 24l12 18 10-14 14 27z"/></g></symbol>
<symbol id="progress-warlord" viewBox="0 0 80 80"><g fill="none" stroke="currentColor" stroke-width="5" stroke-linecap="round" stroke-linejoin="round"><path d="M19 55V32l21-15 21 15v23zM31 55V39h18v16"/></g></symbol>
<symbol id="progress-intrigue" viewBox="0 0 80 80"><g fill="none" stroke="currentColor" stroke-width="5" stroke-linecap="round" stroke-linejoin="round"><path d="M18 45C28 17 40 14 50 45M32 45C41 20 52 18 60 45"/></g></symbol>
<symbol id="progress-levy" viewBox="0 0 80 80"><g fill="none" stroke="currentColor" stroke-width="5" stroke-linecap="round" stroke-linejoin="round"><path d="M18 48h44V24H18zM18 36h44M32 24v24M48 24v24"/></g></symbol>
<symbol id="progress-roadworks" viewBox="0 0 80 80"><g fill="none" stroke="currentColor" stroke-width="5" stroke-linecap="round" stroke-linejoin="round"><path d="M40 15v50M40 24l-14 10M40 34l15 10M40 44L25 55"/></g></symbol>
<symbol id="progress-invention" viewBox="0 0 80 80"><g fill="none" stroke="currentColor" stroke-width="5" stroke-linecap="round" stroke-linejoin="round"><circle cx="40" cy="40" r="22"/><path d="M40 18v44M18 40h44"/></g></symbol>
<symbol id="progress-ore-rush" viewBox="0 0 80 80"><g fill="none" stroke="currentColor" stroke-width="5" stroke-linecap="round" stroke-linejoin="round"><path d="M15 55L31 24l12 18 10-14 14 27z"/></g></symbol>
<symbol id="progress-scholar" viewBox="0 0 80 80"><g fill="none" stroke="currentColor" stroke-width="5" stroke-linecap="round" stroke-linejoin="round"><path d="M19 55V32l21-15 21 15v23zM31 55V39h18v16"/></g></symbol>
<symbol id="longest-road" viewBox="0 0 80 80"><g fill="none" stroke="currentColor" stroke-width="5" stroke-linecap="round" stroke-linejoin="round"><path d="M18 45C28 17 40 14 50 45M32 45C41 20 52 18 60 45"/></g></symbol>
<symbol id="largest-defense" viewBox="0 0 80 80"><g fill="none" stroke="currentColor" stroke-width="5" stroke-linecap="round" stroke-linejoin="round"><path d="M18 48h44V24H18zM18 36h44M32 24v24M48 24v24"/></g></symbol>
<symbol id="victory-point" viewBox="0 0 80 80"><g fill="none" stroke="currentColor" stroke-width="5" stroke-linecap="round" stroke-linejoin="round"><path d="M40 15v50M40 24l-14 10M40 34l15 10M40 44L25 55"/></g></symbol>
<symbol id="current-player" viewBox="0 0 80 80"><g fill="none" stroke="currentColor" stroke-width="5" stroke-linecap="round" stroke-linejoin="round"><circle cx="40" cy="40" r="22"/><path d="M40 18v44M18 40h44"/></g></symbol>
<symbol id="online-player" viewBox="0 0 80 80"><g fill="none" stroke="currentColor" stroke-width="5" stroke-linecap="round" stroke-linejoin="round"><path d="M15 55L31 24l12 18 10-14 14 27z"/></g></symbol>
<symbol id="bot" viewBox="0 0 80 80"><g fill="none" stroke="currentColor" stroke-width="5" stroke-linecap="round" stroke-linejoin="round"><path d="M19 55V32l21-15 21 15v23zM31 55V39h18v16"/></g></symbol>
<symbol id="disconnected" viewBox="0 0 80 80"><g fill="none" stroke="currentColor" stroke-width="5" stroke-linecap="round" stroke-linejoin="round"><path d="M18 45C28 17 40 14 50 45M32 45C41 20 52 18 60 45"/></g></symbol>
<symbol id="loading" viewBox="0 0 80 80"><g fill="none" stroke="currentColor" stroke-width="5" stroke-linecap="round" stroke-linejoin="round"><path d="M18 48h44V24H18zM18 36h44M32 24v24M48 24v24"/></g></symbol>
<symbol id="valid-placement" viewBox="0 0 80 80"><g fill="none" stroke="currentColor" stroke-width="5" stroke-linecap="round" stroke-linejoin="round"><path d="M40 15v50M40 24l-14 10M40 34l15 10M40 44L25 55"/></g></symbol>
<symbol id="invalid-placement" viewBox="0 0 80 80"><g fill="none" stroke="currentColor" stroke-width="5" stroke-linecap="round" stroke-linejoin="round"><circle cx="40" cy="40" r="22"/><path d="M40 18v44M18 40h44"/></g></symbol>
<symbol id="selected-piece" viewBox="0 0 80 80"><g fill="none" stroke="currentColor" stroke-width="5" stroke-linecap="round" stroke-linejoin="round"><path d="M15 55L31 24l12 18 10-14 14 27z"/></g></symbol><symbol id="die-1" viewBox="0 0 80 80"><rect x="9" y="9" width="62" height="62" rx="13" fill="#F6F2E7" stroke="currentColor" stroke-width="5"/><text x="40" y="52" text-anchor="middle" font-size="35" font-family="Montserrat,Arial" font-weight="800" fill="currentColor">1</text></symbol>
<symbol id="die-2" viewBox="0 0 80 80"><rect x="9" y="9" width="62" height="62" rx="13" fill="#F6F2E7" stroke="currentColor" stroke-width="5"/><text x="40" y="52" text-anchor="middle" font-size="35" font-family="Montserrat,Arial" font-weight="800" fill="currentColor">2</text></symbol>
<symbol id="die-3" viewBox="0 0 80 80"><rect x="9" y="9" width="62" height="62" rx="13" fill="#F6F2E7" stroke="currentColor" stroke-width="5"/><text x="40" y="52" text-anchor="middle" font-size="35" font-family="Montserrat,Arial" font-weight="800" fill="currentColor">3</text></symbol>
<symbol id="die-4" viewBox="0 0 80 80"><rect x="9" y="9" width="62" height="62" rx="13" fill="#F6F2E7" stroke="currentColor" stroke-width="5"/><text x="40" y="52" text-anchor="middle" font-size="35" font-family="Montserrat,Arial" font-weight="800" fill="currentColor">4</text></symbol>
<symbol id="die-5" viewBox="0 0 80 80"><rect x="9" y="9" width="62" height="62" rx="13" fill="#F6F2E7" stroke="currentColor" stroke-width="5"/><text x="40" y="52" text-anchor="middle" font-size="35" font-family="Montserrat,Arial" font-weight="800" fill="currentColor">5</text></symbol>
<symbol id="die-6" viewBox="0 0 80 80"><rect x="9" y="9" width="62" height="62" rx="13" fill="#F6F2E7" stroke="currentColor" stroke-width="5"/><text x="40" y="52" text-anchor="middle" font-size="35" font-family="Montserrat,Arial" font-weight="800" fill="currentColor">6</text></symbol><symbol id="red-die-1" viewBox="0 0 80 80"><rect x="9" y="9" width="62" height="62" rx="13" fill="#C88B6A" stroke="#111" stroke-width="5"/><text x="40" y="52" text-anchor="middle" font-size="35" font-family="Montserrat,Arial" font-weight="800" fill="#F6F2E7">1</text></symbol>
<symbol id="red-die-2" viewBox="0 0 80 80"><rect x="9" y="9" width="62" height="62" rx="13" fill="#C88B6A" stroke="#111" stroke-width="5"/><text x="40" y="52" text-anchor="middle" font-size="35" font-family="Montserrat,Arial" font-weight="800" fill="#F6F2E7">2</text></symbol>
<symbol id="red-die-3" viewBox="0 0 80 80"><rect x="9" y="9" width="62" height="62" rx="13" fill="#C88B6A" stroke="#111" stroke-width="5"/><text x="40" y="52" text-anchor="middle" font-size="35" font-family="Montserrat,Arial" font-weight="800" fill="#F6F2E7">3</text></symbol>
<symbol id="red-die-4" viewBox="0 0 80 80"><rect x="9" y="9" width="62" height="62" rx="13" fill="#C88B6A" stroke="#111" stroke-width="5"/><text x="40" y="52" text-anchor="middle" font-size="35" font-family="Montserrat,Arial" font-weight="800" fill="#F6F2E7">4</text></symbol>
<symbol id="red-die-5" viewBox="0 0 80 80"><rect x="9" y="9" width="62" height="62" rx="13" fill="#C88B6A" stroke="#111" stroke-width="5"/><text x="40" y="52" text-anchor="middle" font-size="35" font-family="Montserrat,Arial" font-weight="800" fill="#F6F2E7">5</text></symbol>
<symbol id="red-die-6" viewBox="0 0 80 80"><rect x="9" y="9" width="62" height="62" rx="13" fill="#C88B6A" stroke="#111" stroke-width="5"/><text x="40" y="52" text-anchor="middle" font-size="35" font-family="Montserrat,Arial" font-weight="800" fill="#F6F2E7">6</text></symbol><symbol id="event-barbarian-1" viewBox="0 0 80 80"><rect x="9" y="9" width="62" height="62" rx="13" fill="#ECE7D8" stroke="#111" stroke-width="5"/><g transform="translate(0 0)" fill="none" stroke="#1D4F8C" stroke-width="6" stroke-linecap="round" stroke-linejoin="round"><circle cx="40" cy="40" r="22"/><path d="M40 18v44M18 40h44"/></g></symbol>
<symbol id="event-barbarian-2" viewBox="0 0 80 80"><rect x="9" y="9" width="62" height="62" rx="13" fill="#ECE7D8" stroke="#111" stroke-width="5"/><g transform="translate(0 2)" fill="none" stroke="#1D4F8C" stroke-width="6" stroke-linecap="round" stroke-linejoin="round"><path d="M15 55L31 24l12 18 10-14 14 27z"/></g></symbol>
<symbol id="event-barbarian-3" viewBox="0 0 80 80"><rect x="9" y="9" width="62" height="62" rx="13" fill="#ECE7D8" stroke="#111" stroke-width="5"/><g transform="translate(0 0)" fill="none" stroke="#1D4F8C" stroke-width="6" stroke-linecap="round" stroke-linejoin="round"><path d="M19 55V32l21-15 21 15v23zM31 55V39h18v16"/></g></symbol>
<symbol id="event-trade" viewBox="0 0 80 80"><rect x="9" y="9" width="62" height="62" rx="13" fill="#ECE7D8" stroke="#111" stroke-width="5"/><g transform="translate(0 2)" fill="none" stroke="#7F8A6A" stroke-width="6" stroke-linecap="round" stroke-linejoin="round"><path d="M18 45C28 17 40 14 50 45M32 45C41 20 52 18 60 45"/></g></symbol>
<symbol id="event-politics" viewBox="0 0 80 80"><rect x="9" y="9" width="62" height="62" rx="13" fill="#ECE7D8" stroke="#111" stroke-width="5"/><g transform="translate(0 0)" fill="none" stroke="#C88B6A" stroke-width="6" stroke-linecap="round" stroke-linejoin="round"><path d="M18 48h44V24H18zM18 36h44M32 24v24M48 24v24"/></g></symbol>
<symbol id="event-science" viewBox="0 0 80 80"><rect x="9" y="9" width="62" height="62" rx="13" fill="#ECE7D8" stroke="#111" stroke-width="5"/><g transform="translate(0 2)" fill="none" stroke="#c9a24a" stroke-width="6" stroke-linecap="round" stroke-linejoin="round"><path d="M40 15v50M40 24l-14 10M40 34l15 10M40 44L25 55"/></g></symbol><symbol id="knight-level-1" viewBox="0 0 80 80"><g fill="none" stroke="currentColor" stroke-width="5" stroke-linecap="round" stroke-linejoin="round"><path d="M18 18h44v25Q40 68 18 43Z"/><circle cx="30" cy="37" r="3" fill="currentColor" stroke="none"/></g></symbol>
<symbol id="knight-level-2" viewBox="0 0 80 80"><g fill="none" stroke="currentColor" stroke-width="5" stroke-linecap="round" stroke-linejoin="round"><path d="M18 18h44v25Q40 68 18 43Z"/><circle cx="30" cy="37" r="3" fill="currentColor" stroke="none"/><circle cx="40" cy="37" r="3" fill="currentColor" stroke="none"/></g></symbol>
<symbol id="knight-level-3" viewBox="0 0 80 80"><g fill="none" stroke="currentColor" stroke-width="5" stroke-linecap="round" stroke-linejoin="round"><path d="M18 18h44v25Q40 68 18 43Z"/><circle cx="30" cy="37" r="3" fill="currentColor" stroke="none"/><circle cx="40" cy="37" r="3" fill="currentColor" stroke="none"/><circle cx="50" cy="37" r="3" fill="currentColor" stroke="none"/></g></symbol>
<symbol id="knight-active" viewBox="0 0 80 80"><g fill="none" stroke="currentColor" stroke-width="5" stroke-linecap="round" stroke-linejoin="round"><path d="M18 18h44v25Q40 68 18 43Z"/><path d="M40 8v12M32 13l8 7 8-7"/><circle cx="40" cy="38" r="5" fill="#c9a24a" stroke="none"/></g></symbol>
<symbol id="knight-inactive" viewBox="0 0 80 80"><g fill="none" stroke="currentColor" stroke-width="5" stroke-linecap="round" stroke-linejoin="round"><path d="M18 18h44v25Q40 68 18 43Z"/><path d="M28 39h24"/></g></symbol>
<symbol id="metropolis-trade" viewBox="0 0 80 80"><g fill="none" stroke="currentColor" stroke-width="5" stroke-linecap="round" stroke-linejoin="round"><path d="M18 62V30l22-15 22 15v32Z"/><path d="M25 48h30M29 38h22"/></g></symbol>
<symbol id="metropolis-politics" viewBox="0 0 80 80"><g fill="none" stroke="currentColor" stroke-width="5" stroke-linecap="round" stroke-linejoin="round"><path d="M18 62V30l22-15 22 15v32Z"/><path d="M31 51V34h18v17M27 55h26"/></g></symbol>
<symbol id="metropolis-science" viewBox="0 0 80 80"><g fill="none" stroke="currentColor" stroke-width="5" stroke-linecap="round" stroke-linejoin="round"><path d="M18 62V30l22-15 22 15v32Z"/><circle cx="40" cy="43" r="10"/><path d="M40 33v20M30 43h20"/></g></symbol>
<symbol id="harbor-badge-any" viewBox="0 0 80 80"><g fill="none" stroke="currentColor" stroke-width="5" stroke-linecap="round" stroke-linejoin="round"><path d="M12 18h56v44H12Z"/><path d="M22 51h36M25 29h30"/><circle cx="40" cy="40" r="8"/></g></symbol>
<symbol id="harbor-badge-wood" viewBox="0 0 80 80"><g fill="none" stroke="currentColor" stroke-width="5" stroke-linecap="round" stroke-linejoin="round"><path d="M12 18h56v44H12Z"/><path d="M22 51h36M25 29h30"/><circle cx="40" cy="40" r="6" fill="currentColor" stroke="none"/></g></symbol>
<symbol id="harbor-badge-brick" viewBox="0 0 80 80"><g fill="none" stroke="currentColor" stroke-width="5" stroke-linecap="round" stroke-linejoin="round"><path d="M12 18h56v44H12Z"/><path d="M22 51h36M25 29h30"/><circle cx="40" cy="40" r="7" fill="currentColor" stroke="none"/></g></symbol>
<symbol id="harbor-badge-grain" viewBox="0 0 80 80"><g fill="none" stroke="currentColor" stroke-width="5" stroke-linecap="round" stroke-linejoin="round"><path d="M12 18h56v44H12Z"/><path d="M22 51h36M25 29h30"/><circle cx="40" cy="40" r="5" fill="currentColor" stroke="none"/></g></symbol>
<symbol id="harbor-badge-wool" viewBox="0 0 80 80"><g fill="none" stroke="currentColor" stroke-width="5" stroke-linecap="round" stroke-linejoin="round"><path d="M12 18h56v44H12Z"/><path d="M22 51h36M25 29h30"/><circle cx="40" cy="40" r="6" fill="currentColor" stroke="none"/></g></symbol>
<symbol id="harbor-badge-ore" viewBox="0 0 80 80"><g fill="none" stroke="currentColor" stroke-width="5" stroke-linecap="round" stroke-linejoin="round"><path d="M12 18h56v44H12Z"/><path d="M22 51h36M25 29h30"/><circle cx="40" cy="40" r="7" fill="currentColor" stroke="none"/></g></symbol>
</defs></svg>
