<svg xmlns="http://www.w3.org/2000/svg" viewBox="0 0 640 360" width="640" height="360" role="img"><defs><linearGradient id="g" x1="0" y1="0" x2="0" y2="1"><stop offset="0" stop-color="#e9dcc2"/><stop offset="1" stop-color="#cbb78f"/></linearGradient></defs><rect width="640" height="360" fill="url(#g)"/><rect y="250" width="640" height="110" fill="#bcd2c8"/><path d="M0 250 Q160 232 320 250 T640 250 V360 H0Z" fill="#a7c6ba"/><polygon points="80,250 80,150 200,150 200,250" fill="#f3e7cd" stroke="#b8945a" stroke-width="3"/><polygon points="200,250 200,118 300,118 300,250" fill="#ead9b9" stroke="#b8945a" stroke-width="3"/><rect x="120" y="185" width="26" height="42" fill="#a5602f"/><rect x="232" y="158" width="24" height="32" fill="#96541f"/><circle cx="510" cy="118" r="36" fill="#e6bf59"/><polygon points="425,250 468,176 511,250" fill="#6f9455"/><polygon points="470,250 508,186 546,250" fill="#5d8146"/><path d="M560 250 l0-72 32 22 0 50Z" fill="#f3e7cd" stroke="#b8945a" stroke-width="3"/></svg>