<svg xmlns="http://www.w3.org/2000/svg" viewBox="0 0 480 300" width="480" height="300" role="img"><defs><linearGradient id="g" x1="0" y1="0" x2="0" y2="1"><stop offset="0" stop-color="#e6d7b4"/><stop offset="1" stop-color="#c9b184"/></linearGradient></defs><rect width="480" height="300" fill="url(#g)"/><polygon points="240.0,98.0 285.0,124.0 285.0,176.0 240.0,202.0 195.0,176.0 195.0,124.0" fill="#8bbf6a" stroke="#7c5a2e" stroke-width="3"/><polygon points="298.0,98.0 343.0,124.0 343.0,176.0 298.0,202.0 253.0,176.0 253.0,124.0" fill="#e0be5e" stroke="#7c5a2e" stroke-width="3"/><polygon points="182.0,98.0 227.0,124.0 227.0,176.0 182.0,202.0 137.0,176.0 137.0,124.0" fill="#d69a5a" stroke="#7c5a2e" stroke-width="3"/><polygon points="211.0,152.0 256.0,178.0 256.0,230.0 211.0,256.0 166.0,230.0 166.0,178.0" fill="#6fa8d6" stroke="#7c5a2e" stroke-width="3"/><polygon points="269.0,152.0 314.0,178.0 314.0,230.0 269.0,256.0 224.0,230.0 224.0,178.0" fill="#e0c98a" stroke="#7c5a2e" stroke-width="3"/><polygon points="211.0,44.0 256.0,70.0 256.0,122.0 211.0,148.0 166.0,122.0 166.0,70.0" fill="#a9cf7a" stroke="#7c5a2e" stroke-width="3"/><polygon points="269.0,44.0 314.0,70.0 314.0,122.0 269.0,148.0 224.0,122.0 224.0,70.0" fill="#e0b24e" stroke="#7c5a2e" stroke-width="3"/><circle cx="240" cy="150" r="17" fill="#fbf4e3" stroke="#7c5a2e" stroke-width="2"/><text x="240" y="157" font-family="Georgia" font-size="20" text-anchor="middle" fill="#b0341f">8</text></svg>