<svg xmlns="http://www.w3.org/2000/svg" viewBox="0 0 512 512" role="img" aria-label="Israel Landscape brick">
<defs>
<filter id="paper" x="-10%" y="-10%" width="120%" height="120%">
  <feTurbulence type="fractalNoise" baseFrequency=".72" numOctaves="3" seed="19" result="n"/>
  <feColorMatrix in="n" type="saturate" values="0" result="g"/>
  <feComponentTransfer in="g" result="a"><feFuncA type="table" tableValues="0 .11"/></feComponentTransfer>
  <feBlend in="SourceGraphic" in2="a" mode="multiply"/>
</filter>
<linearGradient id="sky" x1="0" y1="0" x2="1" y2="1"><stop stop-color="#f2eadb"/><stop offset="1" stop-color="#b87047"/></linearGradient>
<linearGradient id="sun" x1="0" y1="0" x2="1" y2="1"><stop stop-color="#fff" stop-opacity=".55"/><stop offset=".55" stop-color="#fff" stop-opacity="0"/></linearGradient>
</defs>
<rect width="512" height="512" fill="url(#sky)"/>
<rect width="512" height="512" fill="url(#sun)"/>
<g filter="url(#paper)"><path d="M0 355 C120 285 210 340 322 276 C405 228 455 232 512 211 V512H0Z" fill="#b87047" opacity=".84"/><rect x="20" y="270" width="52" height="24" rx="4" fill="#a85f42" stroke="#f2eadb" stroke-opacity=".35" transform="rotate(-7 46 282)"/><rect x="111" y="317" width="52" height="24" rx="4" fill="#b87047" stroke="#f2eadb" stroke-opacity=".35" transform="rotate(0 137 329)"/><rect x="202" y="364" width="52" height="24" rx="4" fill="#a85f42" stroke="#f2eadb" stroke-opacity=".35" transform="rotate(7 228 376)"/><rect x="293" y="411" width="52" height="24" rx="4" fill="#b87047" stroke="#f2eadb" stroke-opacity=".35" transform="rotate(-7 319 423)"/><rect x="384" y="458" width="52" height="24" rx="4" fill="#a85f42" stroke="#f2eadb" stroke-opacity=".35" transform="rotate(0 410 470)"/><rect x="475" y="295" width="52" height="24" rx="4" fill="#b87047" stroke="#f2eadb" stroke-opacity=".35" transform="rotate(7 501 307)"/><rect x="86" y="342" width="52" height="24" rx="4" fill="#a85f42" stroke="#f2eadb" stroke-opacity=".35" transform="rotate(-7 112 354)"/><rect x="177" y="389" width="52" height="24" rx="4" fill="#b87047" stroke="#f2eadb" stroke-opacity=".35" transform="rotate(0 203 401)"/><rect x="268" y="436" width="52" height="24" rx="4" fill="#a85f42" stroke="#f2eadb" stroke-opacity=".35" transform="rotate(7 294 448)"/><rect x="359" y="273" width="52" height="24" rx="4" fill="#b87047" stroke="#f2eadb" stroke-opacity=".35" transform="rotate(-7 385 285)"/><rect x="450" y="320" width="52" height="24" rx="4" fill="#a85f42" stroke="#f2eadb" stroke-opacity=".35" transform="rotate(0 476 332)"/><rect x="61" y="367" width="52" height="24" rx="4" fill="#b87047" stroke="#f2eadb" stroke-opacity=".35" transform="rotate(7 87 379)"/><rect x="152" y="414" width="52" height="24" rx="4" fill="#a85f42" stroke="#f2eadb" stroke-opacity=".35" transform="rotate(-7 178 426)"/><rect x="243" y="461" width="52" height="24" rx="4" fill="#b87047" stroke="#f2eadb" stroke-opacity=".35" transform="rotate(0 269 473)"/><rect x="334" y="298" width="52" height="24" rx="4" fill="#a85f42" stroke="#f2eadb" stroke-opacity=".35" transform="rotate(7 360 310)"/><rect x="425" y="345" width="52" height="24" rx="4" fill="#b87047" stroke="#f2eadb" stroke-opacity=".35" transform="rotate(-7 451 357)"/><path d="M80 245L166 142l92 103Z" fill="#9a5d45" opacity=".65"/></g></svg>
