<svg xmlns="http://www.w3.org/2000/svg" viewBox="0 0 512 512" role="img" aria-label="Hamsa Nomads wood">
<defs>
<filter id="paper" x="-10%" y="-10%" width="120%" height="120%">
  <feTurbulence type="fractalNoise" baseFrequency=".72" numOctaves="3" seed="19" result="n"/>
  <feColorMatrix in="n" type="saturate" values="0" result="g"/>
  <feComponentTransfer in="g" result="a"><feFuncA type="table" tableValues="0 .11"/></feComponentTransfer>
  <feBlend in="SourceGraphic" in2="a" mode="multiply"/>
</filter>
<linearGradient id="sky" x1="0" y1="0" x2="1" y2="1"><stop stop-color="#F6F2E7"/><stop offset="1" stop-color="#7F8A6A"/></linearGradient>
<linearGradient id="sun" x1="0" y1="0" x2="1" y2="1"><stop stop-color="#fff" stop-opacity=".55"/><stop offset=".55" stop-color="#fff" stop-opacity="0"/></linearGradient>
</defs>
<rect width="512" height="512" fill="url(#sky)"/>
<rect width="512" height="512" fill="url(#sun)"/>
<g filter="url(#paper)"><path d="M0 355 C90 292 170 331 257 278 C337 229 424 257 512 196 V512 H0Z" fill="#7F8A6A" opacity=".78"/><g transform="translate(28 150)"><path d="M0 38V8" stroke="#6b4b2f" stroke-width="7" stroke-linecap="round"/><ellipse cx="-13" cy="6" rx="16" ry="10" fill="#7F8A6A"/><ellipse cx="14" cy="-2" rx="16" ry="10" fill="#667557"/><circle cx="-9" cy="5" r="3" fill="#343d26"/><circle cx="12" cy="-1" r="3" fill="#343d26"/></g><g transform="translate(111 209)"><path d="M0 38V8" stroke="#6b4b2f" stroke-width="7" stroke-linecap="round"/><ellipse cx="-13" cy="6" rx="20" ry="13" fill="#7F8A6A"/><ellipse cx="14" cy="-2" rx="20" ry="13" fill="#667557"/><circle cx="-9" cy="5" r="3" fill="#343d26"/><circle cx="12" cy="-1" r="3" fill="#343d26"/></g><g transform="translate(194 268)"><path d="M0 38V8" stroke="#6b4b2f" stroke-width="7" stroke-linecap="round"/><ellipse cx="-13" cy="6" rx="24" ry="16" fill="#7F8A6A"/><ellipse cx="14" cy="-2" rx="24" ry="16" fill="#667557"/><circle cx="-9" cy="5" r="3" fill="#343d26"/><circle cx="12" cy="-1" r="3" fill="#343d26"/></g><g transform="translate(277 327)"><path d="M0 38V8" stroke="#6b4b2f" stroke-width="7" stroke-linecap="round"/><ellipse cx="-13" cy="6" rx="28" ry="18" fill="#7F8A6A"/><ellipse cx="14" cy="-2" rx="28" ry="18" fill="#667557"/><circle cx="-9" cy="5" r="3" fill="#343d26"/><circle cx="12" cy="-1" r="3" fill="#343d26"/></g><g transform="translate(360 386)"><path d="M0 38V8" stroke="#6b4b2f" stroke-width="7" stroke-linecap="round"/><ellipse cx="-13" cy="6" rx="16" ry="10" fill="#7F8A6A"/><ellipse cx="14" cy="-2" rx="16" ry="10" fill="#667557"/><circle cx="-9" cy="5" r="3" fill="#343d26"/><circle cx="12" cy="-1" r="3" fill="#343d26"/></g><g transform="translate(443 445)"><path d="M0 38V8" stroke="#6b4b2f" stroke-width="7" stroke-linecap="round"/><ellipse cx="-13" cy="6" rx="20" ry="13" fill="#7F8A6A"/><ellipse cx="14" cy="-2" rx="20" ry="13" fill="#667557"/><circle cx="-9" cy="5" r="3" fill="#343d26"/><circle cx="12" cy="-1" r="3" fill="#343d26"/></g><g transform="translate(56 204)"><path d="M0 38V8" stroke="#6b4b2f" stroke-width="7" stroke-linecap="round"/><ellipse cx="-13" cy="6" rx="24" ry="16" fill="#7F8A6A"/><ellipse cx="14" cy="-2" rx="24" ry="16" fill="#667557"/><circle cx="-9" cy="5" r="3" fill="#343d26"/><circle cx="12" cy="-1" r="3" fill="#343d26"/></g><g transform="translate(139 263)"><path d="M0 38V8" stroke="#6b4b2f" stroke-width="7" stroke-linecap="round"/><ellipse cx="-13" cy="6" rx="28" ry="18" fill="#7F8A6A"/><ellipse cx="14" cy="-2" rx="28" ry="18" fill="#667557"/><circle cx="-9" cy="5" r="3" fill="#343d26"/><circle cx="12" cy="-1" r="3" fill="#343d26"/></g><g transform="translate(222 322)"><path d="M0 38V8" stroke="#6b4b2f" stroke-width="7" stroke-linecap="round"/><ellipse cx="-13" cy="6" rx="16" ry="10" fill="#7F8A6A"/><ellipse cx="14" cy="-2" rx="16" ry="10" fill="#667557"/><circle cx="-9" cy="5" r="3" fill="#343d26"/><circle cx="12" cy="-1" r="3" fill="#343d26"/></g><g transform="translate(305 381)"><path d="M0 38V8" stroke="#6b4b2f" stroke-width="7" stroke-linecap="round"/><ellipse cx="-13" cy="6" rx="20" ry="13" fill="#7F8A6A"/><ellipse cx="14" cy="-2" rx="20" ry="13" fill="#667557"/><circle cx="-9" cy="5" r="3" fill="#343d26"/><circle cx="12" cy="-1" r="3" fill="#343d26"/></g><g transform="translate(388 440)"><path d="M0 38V8" stroke="#6b4b2f" stroke-width="7" stroke-linecap="round"/><ellipse cx="-13" cy="6" rx="24" ry="16" fill="#7F8A6A"/><ellipse cx="14" cy="-2" rx="24" ry="16" fill="#667557"/><circle cx="-9" cy="5" r="3" fill="#343d26"/><circle cx="12" cy="-1" r="3" fill="#343d26"/></g><g transform="translate(471 199)"><path d="M0 38V8" stroke="#6b4b2f" stroke-width="7" stroke-linecap="round"/><ellipse cx="-13" cy="6" rx="28" ry="18" fill="#7F8A6A"/><ellipse cx="14" cy="-2" rx="28" ry="18" fill="#667557"/><circle cx="-9" cy="5" r="3" fill="#343d26"/><circle cx="12" cy="-1" r="3" fill="#343d26"/></g><g transform="translate(84 258)"><path d="M0 38V8" stroke="#6b4b2f" stroke-width="7" stroke-linecap="round"/><ellipse cx="-13" cy="6" rx="16" ry="10" fill="#7F8A6A"/><ellipse cx="14" cy="-2" rx="16" ry="10" fill="#667557"/><circle cx="-9" cy="5" r="3" fill="#343d26"/><circle cx="12" cy="-1" r="3" fill="#343d26"/></g><path d="M35 430 C140 366 210 397 306 345 C389 300 443 311 495 273" fill="none" stroke="#F6F2E7" stroke-width="9" stroke-dasharray="18 16" opacity=".75"/></g></svg>
