<svg xmlns="http://www.w3.org/2000/svg" viewBox="0 0 512 512" role="img" aria-label="Classic Isles grain">
<defs>
<filter id="paper" x="-10%" y="-10%" width="120%" height="120%">
  <feTurbulence type="fractalNoise" baseFrequency=".72" numOctaves="3" seed="19" result="n"/>
  <feColorMatrix in="n" type="saturate" values="0" result="g"/>
  <feComponentTransfer in="g" result="a"><feFuncA type="table" tableValues="0 .11"/></feComponentTransfer>
  <feBlend in="SourceGraphic" in2="a" mode="multiply"/>
</filter>
<linearGradient id="sky" x1="0" y1="0" x2="1" y2="1"><stop stop-color="#f5ead2"/><stop offset="1" stop-color="#d2a93f"/></linearGradient>
<linearGradient id="sun" x1="0" y1="0" x2="1" y2="1"><stop stop-color="#fff" stop-opacity=".55"/><stop offset=".55" stop-color="#fff" stop-opacity="0"/></linearGradient>
</defs>
<rect width="512" height="512" fill="url(#sky)"/>
<rect width="512" height="512" fill="url(#sun)"/>
<g filter="url(#paper)"><path d="M0 250 C120 210 199 245 299 205 C390 169 452 190 512 164V512H0Z" fill="#d2a93f" opacity=".82"/><g transform="translate(18 238) rotate(-8)"><path d="M0 52V0" stroke="#80642b" stroke-width="4"/><path d="M0 8l-12 8M0 18l12 8M0 28l-12 8" stroke="#f2d06c" stroke-width="7" stroke-linecap="round"/></g><g transform="translate(79 321) rotate(8)"><path d="M0 52V0" stroke="#80642b" stroke-width="4"/><path d="M0 8l-12 8M0 18l12 8M0 28l-12 8" stroke="#f2d06c" stroke-width="7" stroke-linecap="round"/></g><g transform="translate(140 404) rotate(-8)"><path d="M0 52V0" stroke="#80642b" stroke-width="4"/><path d="M0 8l-12 8M0 18l12 8M0 28l-12 8" stroke="#f2d06c" stroke-width="7" stroke-linecap="round"/></g><g transform="translate(201 487) rotate(8)"><path d="M0 52V0" stroke="#80642b" stroke-width="4"/><path d="M0 8l-12 8M0 18l12 8M0 28l-12 8" stroke="#f2d06c" stroke-width="7" stroke-linecap="round"/></g><g transform="translate(262 315) rotate(-8)"><path d="M0 52V0" stroke="#80642b" stroke-width="4"/><path d="M0 8l-12 8M0 18l12 8M0 28l-12 8" stroke="#f2d06c" stroke-width="7" stroke-linecap="round"/></g><g transform="translate(323 398) rotate(8)"><path d="M0 52V0" stroke="#80642b" stroke-width="4"/><path d="M0 8l-12 8M0 18l12 8M0 28l-12 8" stroke="#f2d06c" stroke-width="7" stroke-linecap="round"/></g><g transform="translate(384 481) rotate(-8)"><path d="M0 52V0" stroke="#80642b" stroke-width="4"/><path d="M0 8l-12 8M0 18l12 8M0 28l-12 8" stroke="#f2d06c" stroke-width="7" stroke-linecap="round"/></g><g transform="translate(445 309) rotate(8)"><path d="M0 52V0" stroke="#80642b" stroke-width="4"/><path d="M0 8l-12 8M0 18l12 8M0 28l-12 8" stroke="#f2d06c" stroke-width="7" stroke-linecap="round"/></g><g transform="translate(506 392) rotate(-8)"><path d="M0 52V0" stroke="#80642b" stroke-width="4"/><path d="M0 8l-12 8M0 18l12 8M0 28l-12 8" stroke="#f2d06c" stroke-width="7" stroke-linecap="round"/></g><g transform="translate(77 475) rotate(8)"><path d="M0 52V0" stroke="#80642b" stroke-width="4"/><path d="M0 8l-12 8M0 18l12 8M0 28l-12 8" stroke="#f2d06c" stroke-width="7" stroke-linecap="round"/></g><g transform="translate(138 303) rotate(-8)"><path d="M0 52V0" stroke="#80642b" stroke-width="4"/><path d="M0 8l-12 8M0 18l12 8M0 28l-12 8" stroke="#f2d06c" stroke-width="7" stroke-linecap="round"/></g><g transform="translate(199 386) rotate(8)"><path d="M0 52V0" stroke="#80642b" stroke-width="4"/><path d="M0 8l-12 8M0 18l12 8M0 28l-12 8" stroke="#f2d06c" stroke-width="7" stroke-linecap="round"/></g><g transform="translate(260 469) rotate(-8)"><path d="M0 52V0" stroke="#80642b" stroke-width="4"/><path d="M0 8l-12 8M0 18l12 8M0 28l-12 8" stroke="#f2d06c" stroke-width="7" stroke-linecap="round"/></g><g transform="translate(321 297) rotate(8)"><path d="M0 52V0" stroke="#80642b" stroke-width="4"/><path d="M0 8l-12 8M0 18l12 8M0 28l-12 8" stroke="#f2d06c" stroke-width="7" stroke-linecap="round"/></g><g transform="translate(382 380) rotate(-8)"><path d="M0 52V0" stroke="#80642b" stroke-width="4"/><path d="M0 8l-12 8M0 18l12 8M0 28l-12 8" stroke="#f2d06c" stroke-width="7" stroke-linecap="round"/></g><g transform="translate(443 463) rotate(8)"><path d="M0 52V0" stroke="#80642b" stroke-width="4"/><path d="M0 8l-12 8M0 18l12 8M0 28l-12 8" stroke="#f2d06c" stroke-width="7" stroke-linecap="round"/></g><g transform="translate(504 291) rotate(-8)"><path d="M0 52V0" stroke="#80642b" stroke-width="4"/><path d="M0 8l-12 8M0 18l12 8M0 28l-12 8" stroke="#f2d06c" stroke-width="7" stroke-linecap="round"/></g><g transform="translate(75 374) rotate(8)"><path d="M0 52V0" stroke="#80642b" stroke-width="4"/><path d="M0 8l-12 8M0 18l12 8M0 28l-12 8" stroke="#f2d06c" stroke-width="7" stroke-linecap="round"/></g><g transform="translate(136 457) rotate(-8)"><path d="M0 52V0" stroke="#80642b" stroke-width="4"/><path d="M0 8l-12 8M0 18l12 8M0 28l-12 8" stroke="#f2d06c" stroke-width="7" stroke-linecap="round"/></g><g transform="translate(197 285) rotate(8)"><path d="M0 52V0" stroke="#80642b" stroke-width="4"/><path d="M0 8l-12 8M0 18l12 8M0 28l-12 8" stroke="#f2d06c" stroke-width="7" stroke-linecap="round"/></g><g transform="translate(258 368) rotate(-8)"><path d="M0 52V0" stroke="#80642b" stroke-width="4"/><path d="M0 8l-12 8M0 18l12 8M0 28l-12 8" stroke="#f2d06c" stroke-width="7" stroke-linecap="round"/></g><g transform="translate(319 451) rotate(8)"><path d="M0 52V0" stroke="#80642b" stroke-width="4"/><path d="M0 8l-12 8M0 18l12 8M0 28l-12 8" stroke="#f2d06c" stroke-width="7" stroke-linecap="round"/></g><g transform="translate(380 279) rotate(-8)"><path d="M0 52V0" stroke="#80642b" stroke-width="4"/><path d="M0 8l-12 8M0 18l12 8M0 28l-12 8" stroke="#f2d06c" stroke-width="7" stroke-linecap="round"/></g><g transform="translate(441 362) rotate(8)"><path d="M0 52V0" stroke="#80642b" stroke-width="4"/><path d="M0 8l-12 8M0 18l12 8M0 28l-12 8" stroke="#f2d06c" stroke-width="7" stroke-linecap="round"/></g><g transform="translate(502 445) rotate(-8)"><path d="M0 52V0" stroke="#80642b" stroke-width="4"/><path d="M0 8l-12 8M0 18l12 8M0 28l-12 8" stroke="#f2d06c" stroke-width="7" stroke-linecap="round"/></g></g></svg>
