<svg xmlns="http://www.w3.org/2000/svg" viewBox="0 0 512 512" role="img" aria-label="Classic Isles wood">
<defs>
<filter id="paper" x="-10%" y="-10%" width="120%" height="120%">
  <feTurbulence type="fractalNoise" baseFrequency=".72" numOctaves="3" seed="19" result="n"/>
  <feColorMatrix in="n" type="saturate" values="0" result="g"/>
  <feComponentTransfer in="g" result="a"><feFuncA type="table" tableValues="0 .11"/></feComponentTransfer>
  <feBlend in="SourceGraphic" in2="a" mode="multiply"/>
</filter>
<linearGradient id="sky" x1="0" y1="0" x2="1" y2="1"><stop stop-color="#f5ead2"/><stop offset="1" stop-color="#55723f"/></linearGradient>
<linearGradient id="sun" x1="0" y1="0" x2="1" y2="1"><stop stop-color="#fff" stop-opacity=".55"/><stop offset=".55" stop-color="#fff" stop-opacity="0"/></linearGradient>
</defs>
<rect width="512" height="512" fill="url(#sky)"/>
<rect width="512" height="512" fill="url(#sun)"/>
<g filter="url(#paper)"><path d="M0 355 C90 292 170 331 257 278 C337 229 424 257 512 196 V512 H0Z" fill="#55723f" opacity=".78"/><g transform="translate(28 150)"><path d="M0 40V10" stroke="#6b4b2f" stroke-width="7"/><path d="M-26 20L0-38L26 20Z" fill="#46653a"/><path d="M-22 1L0-48L22 1Z" fill="#5f7f4e"/></g><g transform="translate(111 209)"><path d="M0 40V10" stroke="#6b4b2f" stroke-width="7"/><path d="M-26 20L0-38L26 20Z" fill="#46653a"/><path d="M-22 1L0-48L22 1Z" fill="#5f7f4e"/></g><g transform="translate(194 268)"><path d="M0 40V10" stroke="#6b4b2f" stroke-width="7"/><path d="M-26 20L0-38L26 20Z" fill="#46653a"/><path d="M-22 1L0-48L22 1Z" fill="#5f7f4e"/></g><g transform="translate(277 327)"><path d="M0 40V10" stroke="#6b4b2f" stroke-width="7"/><path d="M-26 20L0-38L26 20Z" fill="#46653a"/><path d="M-22 1L0-48L22 1Z" fill="#5f7f4e"/></g><g transform="translate(360 386)"><path d="M0 40V10" stroke="#6b4b2f" stroke-width="7"/><path d="M-26 20L0-38L26 20Z" fill="#46653a"/><path d="M-22 1L0-48L22 1Z" fill="#5f7f4e"/></g><g transform="translate(443 445)"><path d="M0 40V10" stroke="#6b4b2f" stroke-width="7"/><path d="M-26 20L0-38L26 20Z" fill="#46653a"/><path d="M-22 1L0-48L22 1Z" fill="#5f7f4e"/></g><g transform="translate(56 204)"><path d="M0 40V10" stroke="#6b4b2f" stroke-width="7"/><path d="M-26 20L0-38L26 20Z" fill="#46653a"/><path d="M-22 1L0-48L22 1Z" fill="#5f7f4e"/></g><g transform="translate(139 263)"><path d="M0 40V10" stroke="#6b4b2f" stroke-width="7"/><path d="M-26 20L0-38L26 20Z" fill="#46653a"/><path d="M-22 1L0-48L22 1Z" fill="#5f7f4e"/></g><g transform="translate(222 322)"><path d="M0 40V10" stroke="#6b4b2f" stroke-width="7"/><path d="M-26 20L0-38L26 20Z" fill="#46653a"/><path d="M-22 1L0-48L22 1Z" fill="#5f7f4e"/></g><g transform="translate(305 381)"><path d="M0 40V10" stroke="#6b4b2f" stroke-width="7"/><path d="M-26 20L0-38L26 20Z" fill="#46653a"/><path d="M-22 1L0-48L22 1Z" fill="#5f7f4e"/></g><g transform="translate(388 440)"><path d="M0 40V10" stroke="#6b4b2f" stroke-width="7"/><path d="M-26 20L0-38L26 20Z" fill="#46653a"/><path d="M-22 1L0-48L22 1Z" fill="#5f7f4e"/></g><g transform="translate(471 199)"><path d="M0 40V10" stroke="#6b4b2f" stroke-width="7"/><path d="M-26 20L0-38L26 20Z" fill="#46653a"/><path d="M-22 1L0-48L22 1Z" fill="#5f7f4e"/></g><g transform="translate(84 258)"><path d="M0 40V10" stroke="#6b4b2f" stroke-width="7"/><path d="M-26 20L0-38L26 20Z" fill="#46653a"/><path d="M-22 1L0-48L22 1Z" fill="#5f7f4e"/></g><path d="M35 430 C140 366 210 397 306 345 C389 300 443 311 495 273" fill="none" stroke="#f5ead2" stroke-width="9" stroke-dasharray="18 16" opacity=".75"/></g></svg>
