<svg xmlns="http://www.w3.org/2000/svg" viewBox="0 0 512 512" role="img" aria-label="Classic Isles wool">
<defs>
<filter id="paper" x="-10%" y="-10%" width="120%" height="120%">
  <feTurbulence type="fractalNoise" baseFrequency=".72" numOctaves="3" seed="19" result="n"/>
  <feColorMatrix in="n" type="saturate" values="0" result="g"/>
  <feComponentTransfer in="g" result="a"><feFuncA type="table" tableValues="0 .11"/></feComponentTransfer>
  <feBlend in="SourceGraphic" in2="a" mode="multiply"/>
</filter>
<linearGradient id="sky" x1="0" y1="0" x2="1" y2="1"><stop stop-color="#f5ead2"/><stop offset="1" stop-color="#91a978"/></linearGradient>
<linearGradient id="sun" x1="0" y1="0" x2="1" y2="1"><stop stop-color="#fff" stop-opacity=".55"/><stop offset=".55" stop-color="#fff" stop-opacity="0"/></linearGradient>
</defs>
<rect width="512" height="512" fill="url(#sky)"/>
<rect width="512" height="512" fill="url(#sun)"/>
<g filter="url(#paper)"><path d="M0 300 C98 235 177 272 269 226 C350 185 432 218 512 174V512H0Z" fill="#81986d" opacity=".82"/><g transform="translate(45 260)"><g fill="#f5ead2" stroke="#24313b" stroke-width="3"><circle cx="-16" cy="0" r="14"/><circle cx="0" cy="-5" r="17"/><circle cx="18" cy="1" r="14"/></g><circle cx="33" cy="2" r="9" fill="#30353b"/><path d="M-11 12v20M14 12v20" stroke="#24313b" stroke-width="4"/></g><g transform="translate(152 331)"><g fill="#f5ead2" stroke="#24313b" stroke-width="3"><circle cx="-16" cy="0" r="14"/><circle cx="0" cy="-5" r="17"/><circle cx="18" cy="1" r="14"/></g><circle cx="33" cy="2" r="9" fill="#30353b"/><path d="M-11 12v20M14 12v20" stroke="#24313b" stroke-width="4"/></g><g transform="translate(259 402)"><g fill="#f5ead2" stroke="#24313b" stroke-width="3"><circle cx="-16" cy="0" r="14"/><circle cx="0" cy="-5" r="17"/><circle cx="18" cy="1" r="14"/></g><circle cx="33" cy="2" r="9" fill="#30353b"/><path d="M-11 12v20M14 12v20" stroke="#24313b" stroke-width="4"/></g><g transform="translate(366 263)"><g fill="#f5ead2" stroke="#24313b" stroke-width="3"><circle cx="-16" cy="0" r="14"/><circle cx="0" cy="-5" r="17"/><circle cx="18" cy="1" r="14"/></g><circle cx="33" cy="2" r="9" fill="#30353b"/><path d="M-11 12v20M14 12v20" stroke="#24313b" stroke-width="4"/></g><g transform="translate(473 334)"><g fill="#f5ead2" stroke="#24313b" stroke-width="3"><circle cx="-16" cy="0" r="14"/><circle cx="0" cy="-5" r="17"/><circle cx="18" cy="1" r="14"/></g><circle cx="33" cy="2" r="9" fill="#30353b"/><path d="M-11 12v20M14 12v20" stroke="#24313b" stroke-width="4"/></g><g transform="translate(150 405)"><g fill="#f5ead2" stroke="#24313b" stroke-width="3"><circle cx="-16" cy="0" r="14"/><circle cx="0" cy="-5" r="17"/><circle cx="18" cy="1" r="14"/></g><circle cx="33" cy="2" r="9" fill="#30353b"/><path d="M-11 12v20M14 12v20" stroke="#24313b" stroke-width="4"/></g><g transform="translate(257 266)"><g fill="#f5ead2" stroke="#24313b" stroke-width="3"><circle cx="-16" cy="0" r="14"/><circle cx="0" cy="-5" r="17"/><circle cx="18" cy="1" r="14"/></g><circle cx="33" cy="2" r="9" fill="#30353b"/><path d="M-11 12v20M14 12v20" stroke="#24313b" stroke-width="4"/></g><g transform="translate(364 337)"><g fill="#f5ead2" stroke="#24313b" stroke-width="3"><circle cx="-16" cy="0" r="14"/><circle cx="0" cy="-5" r="17"/><circle cx="18" cy="1" r="14"/></g><circle cx="33" cy="2" r="9" fill="#30353b"/><path d="M-11 12v20M14 12v20" stroke="#24313b" stroke-width="4"/></g></g></svg>
