<svg xmlns="http://www.w3.org/2000/svg" viewBox="0 0 1120 760"><rect width="1120" height="760" fill="#F6F2E7"/><text x="30" y="34" font-family="Playfair Display,serif" font-size="28" fill="#111">Catanlike Asset Contact Sheet</text><image href="../themes/classic/hex/wood.svg" x="30" y="55" width="128" height="128"/><text x="94" y="205" text-anchor="middle" font-family="Montserrat,Arial" font-size="15" fill="#111">classic · wood</text><image href="../themes/classic/hex/brick.svg" x="180" y="55" width="128" height="128"/><text x="244" y="205" text-anchor="middle" font-family="Montserrat,Arial" font-size="15" fill="#111">classic · brick</text><image href="../themes/classic/hex/grain.svg" x="330" y="55" width="128" height="128"/><text x="394" y="205" text-anchor="middle" font-family="Montserrat,Arial" font-size="15" fill="#111">classic · grain</text><image href="../themes/classic/hex/wool.svg" x="480" y="55" width="128" height="128"/><text x="544" y="205" text-anchor="middle" font-family="Montserrat,Arial" font-size="15" fill="#111">classic · wool</text><image href="../themes/classic/hex/ore.svg" x="630" y="55" width="128" height="128"/><text x="694" y="205" text-anchor="middle" font-family="Montserrat,Arial" font-size="15" fill="#111">classic · ore</text><image href="../themes/classic/hex/desert.svg" x="780" y="55" width="128" height="128"/><text x="844" y="205" text-anchor="middle" font-family="Montserrat,Arial" font-size="15" fill="#111">classic · desert</text><image href="../themes/classic/hex/sea.svg" x="930" y="55" width="128" height="128"/><text x="994" y="205" text-anchor="middle" font-family="Montserrat,Arial" font-size="15" fill="#111">classic · sea</text><image href="../themes/hamsa/hex/wood.svg" x="30" y="235" width="128" height="128"/><text x="94" y="385" text-anchor="middle" font-family="Montserrat,Arial" font-size="15" fill="#111">hamsa · wood</text><image href="../themes/hamsa/hex/brick.svg" x="180" y="235" width="128" height="128"/><text x="244" y="385" text-anchor="middle" font-family="Montserrat,Arial" font-size="15" fill="#111">hamsa · brick</text><image href="../themes/hamsa/hex/grain.svg" x="330" y="235" width="128" height="128"/><text x="394" y="385" text-anchor="middle" font-family="Montserrat,Arial" font-size="15" fill="#111">hamsa · grain</text><image href="../themes/hamsa/hex/wool.svg" x="480" y="235" width="128" height="128"/><text x="544" y="385" text-anchor="middle" font-family="Montserrat,Arial" font-size="15" fill="#111">hamsa · wool</text><image href="../themes/hamsa/hex/ore.svg" x="630" y="235" width="128" height="128"/><text x="694" y="385" text-anchor="middle" font-family="Montserrat,Arial" font-size="15" fill="#111">hamsa · ore</text><image href="../themes/hamsa/hex/desert.svg" x="780" y="235" width="128" height="128"/><text x="844" y="385" text-anchor="middle" font-family="Montserrat,Arial" font-size="15" fill="#111">hamsa · desert</text><image href="../themes/hamsa/hex/sea.svg" x="930" y="235" width="128" height="128"/><text x="994" y="385" text-anchor="middle" font-family="Montserrat,Arial" font-size="15" fill="#111">hamsa · sea</text><image href="../themes/israel/hex/wood.svg" x="30" y="415" width="128" height="128"/><text x="94" y="565" text-anchor="middle" font-family="Montserrat,Arial" font-size="15" fill="#111">israel · wood</text><image href="../themes/israel/hex/brick.svg" x="180" y="415" width="128" height="128"/><text x="244" y="565" text-anchor="middle" font-family="Montserrat,Arial" font-size="15" fill="#111">israel · brick</text><image href="../themes/israel/hex/grain.svg" x="330" y="415" width="128" height="128"/><text x="394" y="565" text-anchor="middle" font-family="Montserrat,Arial" font-size="15" fill="#111">israel · grain</text><image href="../themes/israel/hex/wool.svg" x="480" y="415" width="128" height="128"/><text x="544" y="565" text-anchor="middle" font-family="Montserrat,Arial" font-size="15" fill="#111">israel · wool</text><image href="../themes/israel/hex/ore.svg" x="630" y="415" width="128" height="128"/><text x="694" y="565" text-anchor="middle" font-family="Montserrat,Arial" font-size="15" fill="#111">israel · ore</text><image href="../themes/israel/hex/desert.svg" x="780" y="415" width="128" height="128"/><text x="844" y="565" text-anchor="middle" font-family="Montserrat,Arial" font-size="15" fill="#111">israel · desert</text><image href="../themes/israel/hex/sea.svg" x="930" y="415" width="128" height="128"/><text x="994" y="565" text-anchor="middle" font-family="Montserrat,Arial" font-size="15" fill="#111">israel · sea</text><g transform="translate(30 620)"><rect width="1060" height="110" rx="18" fill="#ECE7D8" stroke="#111"/><text x="24" y="34" font-family="Montserrat,Arial" font-size="16" fill="#111">Generated systems: 21 terrain tiles · 11 material maps · 77 sprite symbols · 6 card frames · themed low-poly pieces in React Three Fiber</text><path d="M24 68C180 32 304 95 468 57S780 81 1035 39" fill="none" stroke="#1D4F8C" stroke-width="6" stroke-linecap="round"/><path d="M25 88C225 58 368 112 584 78S858 99 1034 70" fill="none" stroke="#C88B6A" stroke-width="4" stroke-dasharray="13 12"/></g></svg>
