<svg xmlns="http://www.w3.org/2000/svg" viewBox="0 0 256 256"><polygon points="128 10 231 69 231 187 128 246 25 187 25 69" fill="#d7be92"/><path d="M25 170 C80 140 125 150 162 170 C194 186 214 175 231 156 L231 246 L25 246 Z" fill="#c99e66" opacity=".65"/><path d="M42 190 C86 166 130 170 178 190" fill="none" stroke="#f2d9aa" stroke-width="6"/><path d="M55 135 C88 114 123 115 164 136" fill="none" stroke="#ead0a0" stroke-width="5"/><rect x="83" y="72" width="90" height="58" rx="9" fill="#f4e7c8" stroke="#8a6d43" stroke-width="4"/><path d="M98 96 H158 M104 112 H151 M105 82 H151" stroke="#b08a52" stroke-width="4" stroke-linecap="round"/><circle cx="128" cy="102" r="18" fill="none" stroke="#a85c3d" stroke-width="3" stroke-dasharray="5 5"/><path d="M48 61 C86 74 116 70 145 59 C174 49 198 58 216 75" fill="none" stroke="#f4dfb9" stroke-width="4" stroke-dasharray="6 8"/><polygon points="128 10 231 69 231 187 128 246 25 187 25 69" fill="none" stroke="#f7e8c5" stroke-width="8"/><polygon points="128 10 231 69 231 187 128 246 25 187 25 69" fill="none" stroke="#6b573e" stroke-width="3" opacity=".45"/></svg>