<svg xmlns="http://www.w3.org/2000/svg" viewBox="0 0 256 256"><polygon points="128 10 231 69 231 187 128 246 25 187 25 69" fill="#d9b54f"/><path d="M25 185 C80 160 120 165 160 180 C190 190 210 178 231 160 L231 246 L25 246 Z" fill="#b68434" opacity=".55"/><g stroke="#7d5623" stroke-width="5" stroke-linecap="round"><path d="M85 185 L92 75"/><path d="M115 188 L122 65"/><path d="M145 188 L160 75"/><path d="M175 185 L185 90"/></g><g stroke="#fff2bd" stroke-width="5" stroke-linecap="round"><path d="M90 105 L58 93"/><path d="M96 130 L62 123"/><path d="M122 98 L88 82"/><path d="M150 103 L187 86"/><path d="M154 130 L198 125"/></g><path d="M48 66 C88 80 120 74 150 63 C178 52 200 60 216 72" fill="none" stroke="#f8df9a" stroke-width="4" stroke-dasharray="6 8"/><polygon points="128 10 231 69 231 187 128 246 25 187 25 69" fill="none" stroke="#f7e8c5" stroke-width="8"/><polygon points="128 10 231 69 231 187 128 246 25 187 25 69" fill="none" stroke="#6b573e" stroke-width="3" opacity=".45"/></svg>