<svg xmlns="http://www.w3.org/2000/svg" viewBox="0 0 256 256"><polygon points="128 10 231 69 231 187 128 246 25 187 25 69" fill="#76a7aa"/><path d="M25 188 C72 163 107 164 141 184 C174 202 209 186 231 165 L231 246 L25 246 Z" fill="#4a8a96"/><path d="M42 91 C82 78 116 87 146 99 C176 111 203 103 221 90" fill="none" stroke="#e9f2ed" stroke-width="6" stroke-linecap="round"/><path d="M36 140 C83 124 116 133 151 145 C182 155 206 148 226 133" fill="none" stroke="#e9f2ed" stroke-width="5" stroke-linecap="round"/><path d="M105 166 L128 88 L151 166 Z" fill="#f7efdf" stroke="#5c5248" stroke-width="4"/><path d="M128 88 V185" stroke="#5c5248" stroke-width="4"/><path d="M78 190 H178" stroke="#5c5248" stroke-width="7" stroke-linecap="round"/><polygon points="128 10 231 69 231 187 128 246 25 187 25 69" fill="none" stroke="#f7e8c5" stroke-width="8"/><polygon points="128 10 231 69 231 187 128 246 25 187 25 69" fill="none" stroke="#6b573e" stroke-width="3" opacity=".45"/></svg>