<svg xmlns="http://www.w3.org/2000/svg" viewBox="0 0 256 256"><polygon points="128 10 231 69 231 187 128 246 25 187 25 69" fill="#b96a4a"/><path d="M32 186c46-30 78-37 120-22 32 12 53 4 76-18v100H32z" fill="#914c36" opacity=".58"/><rect x="58" y="124" width="42" height="46" rx="5" fill="#f3d0a9" stroke="#85412f" stroke-width="4"/><rect x="107" y="99" width="52" height="71" rx="6" fill="#f3d0a9" stroke="#85412f" stroke-width="4"/><rect x="165" y="127" width="36" height="43" rx="5" fill="#f3d0a9" stroke="#85412f" stroke-width="4"/><path d="M66 124l13-17 13 17M116 99l17-22 17 22M173 127l10-14 10 14" fill="#c76f45" stroke="#7e3d2e" stroke-width="4"/><rect x="74" y="141" width="12" height="29" rx="6" fill="#74402e"/><rect x="126" y="128" width="15" height="42" rx="7" fill="#74402e"/><path d="M45 73c34 10 67 7 98-8 25-12 49-11 69 2" fill="none" stroke="#f6dfb5" stroke-width="4" stroke-dasharray="7 9"/><polygon points="128 10 231 69 231 187 128 246 25 187 25 69" fill="none" stroke="#f7e8c5" stroke-width="8"/><polygon points="128 10 231 69 231 187 128 246 25 187 25 69" fill="none" stroke="#6b573e" stroke-width="3" opacity=".45"/></svg>