<svg xmlns="http://www.w3.org/2000/svg" viewBox="0 0 256 256"><polygon points="128 10 231 69 231 187 128 246 25 187 25 69" fill="#7d7264"/><path d="M25 190 C82 166 121 170 158 185 C190 199 213 184 231 165 L231 246 L25 246 Z" fill="#5c5248" opacity=".65"/><circle cx="128" cy="128" r="60" fill="#c6a35d" stroke="#4d4031" stroke-width="7"/><circle cx="128" cy="128" r="43" fill="#f4e4bd" stroke="#8b6a3d" stroke-width="3"/><path d="M128 63 L144 128 L128 193 L112 128 Z" fill="#17324d"/><path d="M63 128 L128 112 L193 128 L128 144 Z" fill="#a95239"/><circle cx="128" cy="128" r="8" fill="#4d4031"/><path d="M45 77 C88 66 114 80 141 92 C174 107 199 98 220 82" fill="none" stroke="#d8c597" stroke-width="4" stroke-dasharray="6 8"/><polygon points="128 10 231 69 231 187 128 246 25 187 25 69" fill="none" stroke="#f7e8c5" stroke-width="8"/><polygon points="128 10 231 69 231 187 128 246 25 187 25 69" fill="none" stroke="#6b573e" stroke-width="3" opacity=".45"/></svg>