<svg xmlns="http://www.w3.org/2000/svg" viewBox="0 0 256 256"><polygon points="128 10 231 69 231 187 128 246 25 187 25 69" fill="#8aa67b"/><path d="M25 188 C78 164 119 166 158 184 C190 198 213 184 231 166 L231 246 L25 246 Z" fill="#5d7d50" opacity=".65"/><path d="M62 172 L126 58 L198 172 Z" fill="#f3dfb8" stroke="#6f563b" stroke-width="5"/><path d="M126 58 L126 172 M126 58 L96 172 M126 58 L158 172" stroke="#9f7341" stroke-width="4"/><path d="M50 174 H208" stroke="#6f563b" stroke-width="5" stroke-linecap="round"/><path d="M44 76 C82 66 113 76 142 88 C172 101 198 96 221 82" fill="none" stroke="#f4dfb9" stroke-width="4" stroke-dasharray="6 8"/><circle cx="72" cy="91" r="13" fill="#758b49"/><circle cx="202" cy="105" r="14" fill="#758b49"/><polygon points="128 10 231 69 231 187 128 246 25 187 25 69" fill="none" stroke="#f7e8c5" stroke-width="8"/><polygon points="128 10 231 69 231 187 128 246 25 187 25 69" fill="none" stroke="#6b573e" stroke-width="3" opacity=".45"/></svg>