<svg xmlns="http://www.w3.org/2000/svg" viewBox="0 0 256 256"><polygon points="128 10 231 69 231 187 128 246 25 187 25 69" fill="#758b49"/><path d="M25 190c55-28 92-30 126-13 33 16 56 9 80-8v77H25z" fill="#3f5c35"/><circle cx="90" cy="105" r="28" fill="#405b35"/><circle cx="130" cy="82" r="32" fill="#617b42"/><circle cx="166" cy="108" r="28" fill="#4c6b37"/><path d="M90 112v55M130 95v62M166 116v50" stroke="#5a3924" stroke-width="7" stroke-linecap="round"/><path d="M35 177c48-32 77-36 116-20 33 14 51 8 75-14" fill="none" stroke="#f0d493" stroke-width="4" stroke-dasharray="8 8"/><polygon points="128 10 231 69 231 187 128 246 25 187 25 69" fill="none" stroke="#f7e8c5" stroke-width="8"/><polygon points="128 10 231 69 231 187 128 246 25 187 25 69" fill="none" stroke="#6b573e" stroke-width="3" opacity=".45"/></svg>