<svg xmlns="http://www.w3.org/2000/svg" viewBox="0 0 100 100">
  <rect width="100" height="100" rx="22" fill="#f2ead9"/>
  <g stroke="#b45a37" stroke-width="4" stroke-linecap="round" stroke-linejoin="round" fill="none">
    <path d="M34 47V33a5 5 0 0 1 10 0v11V24a5 5 0 0 1 10 0v20V27a5 5 0 0 1 10 0v20"/>
    <path d="M34 47c-3-6-11-6-12.5 0-1.5 5 3 9 7.5 12l5 3"/>
    <path d="M64 44c3-6 11-6 12.5 0 1.5 5-3 9-7.5 12l-5 3"/>
    <path d="M34 47v9c0 14 6 22 16 22s16-8 16-22V44"/>
  </g>
  <circle cx="50" cy="60" r="7" stroke="#1e3a5f" stroke-width="3.2" fill="none"/>
  <circle cx="50" cy="60" r="2.6" fill="#1e3a5f"/>
</svg>
