<svg xmlns="http://www.w3.org/2000/svg" viewBox="0 0 256 256"><defs><linearGradient id="g" x1="0" y1="0" x2="1" y2="1"><stop stop-color="#f2d8b9"/><stop offset="1" stop-color="#a95339"/></linearGradient></defs><rect width="256" height="256" fill="#f8ead7"/><polygon points="128 10 231 69 231 187 128 246 25 187 25 69" fill="url(#g)"/><path d="M32 186c46-30 78-37 120-22 32 12 53 4 76-18v100H32z" fill="#9d5638" opacity=".55"/><g fill="#f3d0a9" stroke="#85412f" stroke-width="4"><rect x="58" y="124" width="42" height="46" rx="5"/><rect x="107" y="99" width="52" height="71" rx="6"/><rect x="165" y="127" width="36" height="43" rx="5"/></g><path d="M66 124l13-17 13 17M116 99l17-22 17 22M173 127l10-14 10 14" fill="#c76f45" stroke="#7e3d2e" stroke-width="4"/><g fill="#74402e"><rect x="74" y="141" width="12" height="29" rx="6"/><rect x="126" y="128" width="15" height="42" rx="7"/><rect x="180" y="144" width="10" height="26" rx="5"/></g><path d="M45 73c34 10 67 7 98-8 25-12 49-11 69 2" fill="none" stroke="#f6dfb5" stroke-width="4" stroke-dasharray="7 9" opacity=".75"/><polygon points="128 10 231 69 231 187 128 246 25 187 25 69" fill="none" stroke="#f7e8c5" stroke-width="8"/><polygon points="128 10 231 69 231 187 128 246 25 187 25 69" fill="none" stroke="#6b573e" stroke-width="3" opacity=".45"/></svg>